<svg xmlns="http://www.w3.org/2000/svg" viewBox="0 0 2468.94 1655.53"><defs><style>.cls-1,.cls-8{fill:none;stroke:red;stroke-linecap:round;stroke-linejoin:round;}.cls-2{font-size:30px;font-family:Myriad-Roman, Myriad Roman;}.cls-3{letter-spacing:0.03em;}.cls-4{letter-spacing:-0.01em;}.cls-5{letter-spacing:0em;}.cls-6{letter-spacing:0em;}.cls-7{letter-spacing:-0.01em;}.cls-8{stroke-width:0.01px;}</style></defs><title>rake machine</title><g id="Notes"><path d="M2,1471.81v-25.56H7.19v21.19h13v4.37Z" transform="translate(237.99 176.09)"/><path d="M27.49,1458.88l-4.44-.82a7,7,0,0,1,2.6-4,9.51,9.51,0,0,1,5.49-1.3,11.86,11.86,0,0,1,4.92.78,4.93,4.93,0,0,1,2.27,2,10.21,10.21,0,0,1,.66,4.42l-.06,5.76a20.93,20.93,0,0,0,.23,3.62,10.8,10.8,0,0,0,.89,2.5H35.12c-.13-.32-.29-.8-.48-1.43-.08-.29-.14-.48-.17-.57a8.88,8.88,0,0,1-2.69,1.88,7.71,7.71,0,0,1-3.06.62,6.32,6.32,0,0,1-4.52-1.56,5.61,5.61,0,0,1-.89-6.79,4.87,4.87,0,0,1,2.11-1.9,16.41,16.41,0,0,1,3.91-1.16,27.15,27.15,0,0,0,4.79-1.21v-.5a2.63,2.63,0,0,0-.71-2.07,4.19,4.19,0,0,0-2.66-.62,3.51,3.51,0,0,0-2.06.53A3.55,3.55,0,0,0,27.49,1458.88Zm6.63,4a30.7,30.7,0,0,1-3,.75,9.14,9.14,0,0,0-2.68.87,2.07,2.07,0,0,0-1,1.75,2.44,2.44,0,0,0,.77,1.8,2.64,2.64,0,0,0,2,.76,4.2,4.2,0,0,0,2.53-.88,3.07,3.07,0,0,0,1.17-1.64,9.82,9.82,0,0,0,.2-2.43Z" transform="translate(237.99 176.09)"/><path d="M42.14,1466.62l4.93-.74a3.56,3.56,0,0,0,1.28,2.14,4.4,4.4,0,0,0,2.7.73,4.87,4.87,0,0,0,2.88-.71,1.58,1.58,0,0,0,.64-1.33,1.29,1.29,0,0,0-.35-.94,4,4,0,0,0-1.65-.65q-6-1.33-7.59-2.43a4.8,4.8,0,0,1-2.22-4.2,5.2,5.2,0,0,1,1.92-4.09q1.92-1.65,5.94-1.65a10.49,10.49,0,0,1,5.7,1.23,6.33,6.33,0,0,1,2.57,3.64l-4.69.88a2.88,2.88,0,0,0-1.14-1.67,4.1,4.1,0,0,0-2.38-.58,5.27,5.27,0,0,0-2.79.55,1.18,1.18,0,0,0-.57,1,1.08,1.08,0,0,0,.5.9,18.47,18.47,0,0,0,4.62,1.41,13.68,13.68,0,0,1,5.52,2.21,4.56,4.56,0,0,1,1.55,3.69,5.71,5.71,0,0,1-2.13,4.44q-2.15,1.85-6.33,1.85a10.4,10.4,0,0,1-6-1.53A7,7,0,0,1,42.14,1466.62Z" transform="translate(237.99 176.09)"/><path d="M74.66,1465.94l4.94.81a8.2,8.2,0,0,1-3,4.14,8.79,8.79,0,0,1-5.13,1.42c-3.25,0-5.66-1.06-7.21-3.19a10.66,10.66,0,0,1-1.85-6.45,10.4,10.4,0,0,1,2.42-7.29,8,8,0,0,1,6.14-2.63,8.28,8.28,0,0,1,6.57,2.75q2.42,2.76,2.31,8.44H67.47a5.09,5.09,0,0,0,1.19,3.45,3.75,3.75,0,0,0,2.85,1.23,3,3,0,0,0,1.95-.63A4,4,0,0,0,74.66,1465.94Zm.31-5a4.87,4.87,0,0,0-1.11-3.31,3.56,3.56,0,0,0-5.26.06,4.66,4.66,0,0,0-1,3.25Z" transform="translate(237.99 176.09)"/><path d="M88.62,1471.81H83.68v-18.69h4.56v2.66a7.83,7.83,0,0,1,2.12-2.46,4,4,0,0,1,2.13-.57,6.25,6.25,0,0,1,3.25.93L94.21,1458a4.31,4.31,0,0,0-2.31-.81,2.7,2.7,0,0,0-1.74.57,3.83,3.83,0,0,0-1.13,2.06,28.89,28.89,0,0,0-.41,6.24Z" transform="translate(237.99 176.09)"/><path d="M107.94,1446h10.33a29.7,29.7,0,0,1,4.57.26,6.49,6.49,0,0,1,4.68,3.24,5.92,5.92,0,0,1,.8,3,6.17,6.17,0,0,1-3.64,5.64,6.72,6.72,0,0,1,3.62,2.33,6.15,6.15,0,0,1,1.27,3.86,7.67,7.67,0,0,1-.82,3.41,6.88,6.88,0,0,1-2.24,2.64,7.37,7.37,0,0,1-3.49,1.22q-1.3.13-6.29.17h-8.79Zm5.19,4.38v5.93h3.43q3.06,0,3.81-.09a3.48,3.48,0,0,0,2.11-.91,2.68,2.68,0,0,0,.77-2,2.79,2.79,0,0,0-.66-1.93,3,3,0,0,0-2-.91c-.52-.06-2-.08-4.48-.08Zm0,10.31v6.75H118a23.1,23.1,0,0,0,3.59-.16,3.29,3.29,0,0,0,1.9-1,3.06,3.06,0,0,0,.73-2.15,3,3,0,0,0-2.2-3.08,18.29,18.29,0,0,0-4.64-.36Z" transform="translate(237.99 176.09)"/><path d="M144.69,1465.94l4.94.81a8.2,8.2,0,0,1-3,4.14,8.79,8.79,0,0,1-5.13,1.42q-4.87,0-7.21-3.19a10.66,10.66,0,0,1-1.85-6.45,10.36,10.36,0,0,1,2.43-7.29,8,8,0,0,1,6.13-2.63,8.28,8.28,0,0,1,6.57,2.75q2.42,2.76,2.31,8.44H137.5a5,5,0,0,0,1.2,3.45,3.72,3.72,0,0,0,2.84,1.23,3,3,0,0,0,2-.63A4,4,0,0,0,144.69,1465.94Zm.31-5a4.82,4.82,0,0,0-1.11-3.31,3.41,3.41,0,0,0-2.58-1.13,3.45,3.45,0,0,0-2.68,1.19,4.66,4.66,0,0,0-1,3.25Z" transform="translate(237.99 176.09)"/><path d="M171,1471.81h-4.56v-2.74a7.79,7.79,0,0,1-2.69,2.42,6.66,6.66,0,0,1-3.14.82,7.05,7.05,0,0,1-5.5-2.6q-2.3-2.6-2.29-7.25t2.22-7.23a7.26,7.26,0,0,1,5.63-2.48,7,7,0,0,1,5.4,2.6V1446H171Zm-13.12-9.69a8.74,8.74,0,0,0,.82,4.37,3.73,3.73,0,0,0,3.34,2A3.6,3.6,0,0,0,165,1467a6.76,6.76,0,0,0,1.2-4.37c0-2.16-.39-3.72-1.16-4.67a3.78,3.78,0,0,0-5.91,0A6.41,6.41,0,0,0,157.9,1462.12Z" transform="translate(237.99 176.09)"/><path d="M186,1446h10.33a29.85,29.85,0,0,1,4.58.26,6.54,6.54,0,0,1,4.68,3.24,6.23,6.23,0,0,1-.19,6.39,6.08,6.08,0,0,1-2.65,2.29,6.73,6.73,0,0,1,3.61,2.33,6.1,6.1,0,0,1,1.27,3.86,7.67,7.67,0,0,1-.82,3.41,6.88,6.88,0,0,1-2.24,2.64,7.37,7.37,0,0,1-3.49,1.22q-1.31.13-6.29.17H186Zm5.19,4.38v5.93h3.43c2.05,0,3.31,0,3.81-.09a3.51,3.51,0,0,0,2.12-.91,2.72,2.72,0,0,0,.77-2,2.8,2.8,0,0,0-.67-1.93,3,3,0,0,0-2-.91c-.52-.06-2-.08-4.48-.08Zm0,10.31v6.75H196a23.1,23.1,0,0,0,3.59-.16,3.29,3.29,0,0,0,1.9-1,3.06,3.06,0,0,0,.73-2.15,3.28,3.28,0,0,0-.56-1.93,3.22,3.22,0,0,0-1.64-1.15,18.29,18.29,0,0,0-4.64-.36Z" transform="translate(237.99 176.09)"/><path d="M210.7,1462.27a10.14,10.14,0,0,1,1.22-4.78,8.35,8.35,0,0,1,3.44-3.52,10.26,10.26,0,0,1,5-1.22,9.34,9.34,0,0,1,7,2.76,9.52,9.52,0,0,1,2.71,7,9.63,9.63,0,0,1-2.74,7,9.24,9.24,0,0,1-6.89,2.79,10.91,10.91,0,0,1-4.91-1.16,8,8,0,0,1-3.55-3.41A11.37,11.37,0,0,1,210.7,1462.27Zm5.06.26a6.26,6.26,0,0,0,1.33,4.29,4.33,4.33,0,0,0,6.54,0,6.31,6.31,0,0,0,1.32-4.32,6.21,6.21,0,0,0-1.32-4.26,4.33,4.33,0,0,0-6.54,0A6.26,6.26,0,0,0,215.76,1462.53Z" transform="translate(237.99 176.09)"/><path d="M246.25,1471.81V1469a7.59,7.59,0,0,1-2.69,2.39,7.29,7.29,0,0,1-3.52.9,6.8,6.8,0,0,1-3.38-.83,4.85,4.85,0,0,1-2.17-2.33,10.34,10.34,0,0,1-.67-4.15v-11.88h4.93v8.64a23.16,23.16,0,0,0,.28,4.86,2.64,2.64,0,0,0,1,1.42,3.08,3.08,0,0,0,1.84.52,3.86,3.86,0,0,0,2.27-.7,3.55,3.55,0,0,0,1.38-1.73,20.56,20.56,0,0,0,.37-5.07v-7.94h4.94v18.69Z" transform="translate(237.99 176.09)"/><path d="M272.81,1471.81h-4.94v-9.53a15.35,15.35,0,0,0-.31-3.91,2.77,2.77,0,0,0-1-1.38,2.89,2.89,0,0,0-1.7-.49,3.91,3.91,0,0,0-2.28.7,3.55,3.55,0,0,0-1.38,1.87,16.26,16.26,0,0,0-.37,4.29v8.45h-4.94v-18.69h4.56v2.75a7.63,7.63,0,0,1,9.1-2.53,4.94,4.94,0,0,1,2,1.5,5.63,5.63,0,0,1,1,2.07,15.53,15.53,0,0,1,.27,3.32Z" transform="translate(237.99 176.09)"/><path d="M295,1471.81h-4.56v-2.74a7.79,7.79,0,0,1-2.69,2.42,6.63,6.63,0,0,1-3.14.82,7.07,7.07,0,0,1-5.5-2.6q-2.29-2.6-2.29-7.25t2.22-7.23a7.26,7.26,0,0,1,5.63-2.48,7,7,0,0,1,5.4,2.6V1446H295Zm-13.12-9.69a8.74,8.74,0,0,0,.82,4.37,3.73,3.73,0,0,0,3.34,2,3.6,3.6,0,0,0,2.89-1.47,6.76,6.76,0,0,0,1.2-4.37c0-2.16-.39-3.72-1.16-4.67a3.78,3.78,0,0,0-5.91,0A6.41,6.41,0,0,0,281.86,1462.12Z" transform="translate(237.99 176.09)"/><path d="M303.54,1458.88l-4.44-.82a7,7,0,0,1,2.6-4,9.49,9.49,0,0,1,5.48-1.3,11.86,11.86,0,0,1,4.92.78,4.91,4.91,0,0,1,2.28,2,10.21,10.21,0,0,1,.66,4.42l-.07,5.76a19.76,19.76,0,0,0,.24,3.62,10.8,10.8,0,0,0,.89,2.5h-4.94c-.13-.32-.28-.8-.47-1.43-.08-.29-.14-.48-.17-.57a8.88,8.88,0,0,1-2.69,1.88,7.71,7.71,0,0,1-3.06.62,6.32,6.32,0,0,1-4.52-1.56,5.25,5.25,0,0,1-1.65-4,5.36,5.36,0,0,1,.75-2.82,4.92,4.92,0,0,1,2.11-1.9,16.51,16.51,0,0,1,3.92-1.16,27,27,0,0,0,4.78-1.21v-.5a2.63,2.63,0,0,0-.7-2.07,4.19,4.19,0,0,0-2.66-.62,3.51,3.51,0,0,0-2.06.53A3.55,3.55,0,0,0,303.54,1458.88Zm6.62,4a30,30,0,0,1-3,.75,9.16,9.16,0,0,0-2.67.87,2.07,2.07,0,0,0-1,1.75,2.4,2.4,0,0,0,.77,1.8,2.64,2.64,0,0,0,1.95.76,4.23,4.23,0,0,0,2.54-.88,3.18,3.18,0,0,0,1.17-1.64,10,10,0,0,0,.19-2.43Z" transform="translate(237.99 176.09)"/><path d="M324.62,1471.81h-4.94v-18.69h4.57v2.66a7.83,7.83,0,0,1,2.11-2.46,4.05,4.05,0,0,1,2.14-.57,6.3,6.3,0,0,1,3.25.93l-1.54,4.32a4.25,4.25,0,0,0-2.3-.81,2.73,2.73,0,0,0-1.75.57,3.83,3.83,0,0,0-1.13,2.06,29.58,29.58,0,0,0-.41,6.24Z" transform="translate(237.99 176.09)"/><path d="M331.51,1453.12h5.18l4.47,13.28,4.35-13.28h5.12l-6.55,18-1.21,3.32a14.08,14.08,0,0,1-1.24,2.5,5.44,5.44,0,0,1-1.34,1.4,5.86,5.86,0,0,1-1.87.84,9.65,9.65,0,0,1-2.51.3,12.94,12.94,0,0,1-2.78-.3l-.44-3.87a11,11,0,0,0,2.08.23,3,3,0,0,0,2.53-1,7.17,7.17,0,0,0,1.26-2.6Z" transform="translate(237.99 176.09)"/><polygon points="168.61 116.49 155.21 129.9 235.17 176.09 189.01 96.09 175.6 109.5 137.86 71.75 130.87 78.75 168.61 116.49"/><path d="M-218.43-175.93h7.79V-150h-5v-17.53c0-.5,0-1.21,0-2.11s0-1.61,0-2.11L-220.56-150h-5.26l-4.87-21.75c0,.5,0,1.2,0,2.11s0,1.61,0,2.11V-150h-5v-25.91h7.88l4.71,20.37Z" transform="translate(237.99 176.09)"/><path d="M-198.44-161.68a7.45,7.45,0,0,0,2-.44,1.49,1.49,0,0,0,1.08-1.42,1.68,1.68,0,0,0-.83-1.62,5.2,5.2,0,0,0-2.43-.45,3.19,3.19,0,0,0-2.55.88,3.59,3.59,0,0,0-.71,1.75h-4.84a7.35,7.35,0,0,1,1.42-4.13c1.33-1.68,3.61-2.53,6.85-2.53a12.25,12.25,0,0,1,5.61,1.25c1.64.83,2.45,2.4,2.45,4.71v8.79c0,.61,0,1.35,0,2.21a2.65,2.65,0,0,0,.3,1.34,1.78,1.78,0,0,0,.74.58v.74h-5.45a5.26,5.26,0,0,1-.32-1.09,11.19,11.19,0,0,1-.14-1.16,10.36,10.36,0,0,1-2.4,1.91,7.22,7.22,0,0,1-3.68.94,6.36,6.36,0,0,1-4.33-1.49,5.3,5.3,0,0,1-1.7-4.21,5.44,5.44,0,0,1,2.74-5.11,12.06,12.06,0,0,1,4.43-1.23Zm3.06,2.34a5.89,5.89,0,0,1-1,.49,9,9,0,0,1-1.35.34l-1.14.21a8,8,0,0,0-2.3.68,2.29,2.29,0,0,0-1.18,2.13,2.23,2.23,0,0,0,.72,1.86,2.75,2.75,0,0,0,1.76.57,5.25,5.25,0,0,0,3-.95,4,4,0,0,0,1.44-3.46Z" transform="translate(237.99 176.09)"/><path d="M-188-165.44V-169h2.67v-5.34h5V-169h3.11v3.57h-3.11v10.13a2.3,2.3,0,0,0,.3,1.47,3.33,3.33,0,0,0,1.83.29h.48l.5,0v3.74l-2.37.09q-3.55.12-4.85-1.23a3.67,3.67,0,0,1-.85-2.65v-11.8Z" transform="translate(237.99 176.09)"/><path d="M-161.54-168.79a7.86,7.86,0,0,1,3.32,2.83,9.45,9.45,0,0,1,1.52,4,24.31,24.31,0,0,1,.17,3.8h-14a4.61,4.61,0,0,0,2,4,5.06,5.06,0,0,0,2.76.72,4.21,4.21,0,0,0,2.78-.88,4.3,4.3,0,0,0,1-1.32h5.12a6.29,6.29,0,0,1-1.86,3.46,9.3,9.3,0,0,1-7.21,2.8,10.46,10.46,0,0,1-6.75-2.36q-2.92-2.36-2.92-7.67,0-5,2.64-7.63a9.2,9.2,0,0,1,6.85-2.66A10.83,10.83,0,0,1-161.54-168.79Zm-7.49,4.32a5.18,5.18,0,0,0-1.33,3h8.63a4.22,4.22,0,0,0-1.34-3,4.38,4.38,0,0,0-3-1A4,4,0,0,0-169-164.47Z" transform="translate(237.99 176.09)"/><path d="M-143.36-169.63l.43,0v5.13c-.31,0-.59-.06-.84-.07l-.6,0c-2,0-3.37.66-4.06,2a7.78,7.78,0,0,0-.58,3.41V-150h-5v-19.16h4.78v3.34a10.59,10.59,0,0,1,2-2.62,5.49,5.49,0,0,1,3.66-1.18Z" transform="translate(237.99 176.09)"/><path d="M-134.84-171.47h-5.08v-4.62h5.08Zm-5.08,2.29h5.08V-150h-5.08Z" transform="translate(237.99 176.09)"/><path d="M-122.4-161.68a7.45,7.45,0,0,0,2-.44,1.49,1.49,0,0,0,1.08-1.42,1.66,1.66,0,0,0-.83-1.62,5.2,5.2,0,0,0-2.43-.45,3.19,3.19,0,0,0-2.55.88,3.69,3.69,0,0,0-.71,1.75h-4.83a7.27,7.27,0,0,1,1.41-4.13c1.33-1.68,3.61-2.53,6.85-2.53a12.2,12.2,0,0,1,5.61,1.25q2.46,1.24,2.46,4.71v8.79c0,.61,0,1.35,0,2.21a2.88,2.88,0,0,0,.3,1.34,1.78,1.78,0,0,0,.74.58v.74h-5.45a6,6,0,0,1-.32-1.09c-.06-.34-.1-.73-.14-1.16a10,10,0,0,1-2.4,1.91,7.2,7.2,0,0,1-3.68.94,6.35,6.35,0,0,1-4.32-1.49,5.27,5.27,0,0,1-1.71-4.21,5.45,5.45,0,0,1,2.75-5.11,12,12,0,0,1,4.42-1.23Zm3.06,2.34a5.89,5.89,0,0,1-1,.49,8.81,8.81,0,0,1-1.34.34l-1.14.21a8,8,0,0,0-2.31.68,2.31,2.31,0,0,0-1.18,2.13,2.23,2.23,0,0,0,.72,1.86,2.77,2.77,0,0,0,1.76.57,5.25,5.25,0,0,0,3-.95,4,4,0,0,0,1.43-3.46Z" transform="translate(237.99 176.09)"/><path d="M-104.85-150h-5v-25.91h5Z" transform="translate(237.99 176.09)"/><path d="M-82.37-161.68a7.45,7.45,0,0,0,2-.44,1.49,1.49,0,0,0,1.08-1.42,1.68,1.68,0,0,0-.83-1.62,5.2,5.2,0,0,0-2.43-.45,3.19,3.19,0,0,0-2.55.88,3.5,3.5,0,0,0-.71,1.75h-4.84a7.42,7.42,0,0,1,1.41-4.13c1.33-1.68,3.62-2.53,6.85-2.53a12.27,12.27,0,0,1,5.62,1.25q2.44,1.24,2.45,4.71v8.79c0,.61,0,1.35,0,2.21a2.65,2.65,0,0,0,.3,1.34,1.81,1.81,0,0,0,.73.58v.74h-5.44a5.26,5.26,0,0,1-.32-1.09,11.19,11.19,0,0,1-.14-1.16,10.2,10.2,0,0,1-2.41,1.91,7.16,7.16,0,0,1-3.67.94,6.36,6.36,0,0,1-4.33-1.49,5.3,5.3,0,0,1-1.7-4.21,5.44,5.44,0,0,1,2.74-5.11,12,12,0,0,1,4.43-1.23Zm3.06,2.34a6.31,6.31,0,0,1-1,.49,9.32,9.32,0,0,1-1.35.34l-1.14.21a7.89,7.89,0,0,0-2.3.68,2.29,2.29,0,0,0-1.18,2.13,2.23,2.23,0,0,0,.72,1.86,2.75,2.75,0,0,0,1.76.57,5.25,5.25,0,0,0,3-.95c.93-.63,1.4-1.79,1.44-3.46Z" transform="translate(237.99 176.09)"/><path d="M-64.83-150h-5v-25.91h5Z" transform="translate(237.99 176.09)"/><path d="M-50.9-169.18h5.08l2.91,13.8,3-13.8h5.22L-40.25-150H-45.4l-3-14-3,14h-5.2L-62-169.18h5.38l3,13.74Z" transform="translate(237.99 176.09)"/><path d="M-24.35-161.68a7.45,7.45,0,0,0,2-.44,1.49,1.49,0,0,0,1.08-1.42,1.66,1.66,0,0,0-.83-1.62,5.2,5.2,0,0,0-2.43-.45,3.19,3.19,0,0,0-2.55.88,3.69,3.69,0,0,0-.71,1.75h-4.83a7.27,7.27,0,0,1,1.41-4.13c1.33-1.68,3.61-2.53,6.85-2.53a12.2,12.2,0,0,1,5.61,1.25q2.46,1.24,2.46,4.71v8.79c0,.61,0,1.35,0,2.21a2.88,2.88,0,0,0,.3,1.34,1.85,1.85,0,0,0,.74.58v.74h-5.45a6,6,0,0,1-.32-1.09c-.05-.34-.1-.73-.14-1.16a10,10,0,0,1-2.4,1.91,7.2,7.2,0,0,1-3.68.94,6.35,6.35,0,0,1-4.32-1.49,5.27,5.27,0,0,1-1.71-4.21,5.45,5.45,0,0,1,2.75-5.11,12,12,0,0,1,4.42-1.23Zm3.06,2.34a5.89,5.89,0,0,1-1,.49,8.81,8.81,0,0,1-1.34.34l-1.14.21a7.79,7.79,0,0,0-2.3.68,2.3,2.3,0,0,0-1.19,2.13,2.23,2.23,0,0,0,.72,1.86,2.77,2.77,0,0,0,1.76.57,5.25,5.25,0,0,0,3-.95,4,4,0,0,0,1.43-3.46Z" transform="translate(237.99 176.09)"/><path d="M-11.16-146.35l.63,0a8.1,8.1,0,0,0,1.41-.06,2.42,2.42,0,0,0,1.12-.4A2.61,2.61,0,0,0-7.18-148a3.2,3.2,0,0,0,.33-1.16l-7-20h5.57L-4.14-155l4-14.13H5.14l-6.56,18.84c-1.27,3.63-2.28,5.89-3,6.76s-2.21,1.31-4.43,1.31H-9.95c-.27,0-.67,0-1.21-.06Z" transform="translate(237.99 176.09)"/><path d="M12-156.14a3.41,3.41,0,0,0,.69,1.9c.62.67,1.78,1,3.46,1a5.2,5.2,0,0,0,2.36-.44,1.4,1.4,0,0,0,.87-1.32,1.41,1.41,0,0,0-.7-1.28,28.76,28.76,0,0,0-5.24-1.51,10.85,10.85,0,0,1-4.6-2,4.4,4.4,0,0,1-1.34-3.45,6,6,0,0,1,2.09-4.56,8.4,8.4,0,0,1,5.87-1.91,10.76,10.76,0,0,1,5.86,1.44q2.27,1.42,2.6,4.94h-5a2.94,2.94,0,0,0-.55-1.53,3.46,3.46,0,0,0-2.82-1,4,4,0,0,0-2.33.51,1.44,1.44,0,0,0-.7,1.19,1.32,1.32,0,0,0,.74,1.25,32.39,32.39,0,0,0,5.23,1.39A9.6,9.6,0,0,1,23-159.43a4.88,4.88,0,0,1,1.48,3.61,5.81,5.81,0,0,1-2.13,4.65q-2.11,1.8-6.56,1.8c-3,0-5.24-.64-6.68-1.91a6.19,6.19,0,0,1-2.16-4.86Z" transform="translate(237.99 176.09)"/><path d="M45.72-161.68a7.45,7.45,0,0,0,2-.44,1.49,1.49,0,0,0,1.08-1.42,1.68,1.68,0,0,0-.83-1.62,5.2,5.2,0,0,0-2.43-.45,3.19,3.19,0,0,0-2.55.88,3.59,3.59,0,0,0-.71,1.75H37.44a7.35,7.35,0,0,1,1.42-4.13c1.33-1.68,3.61-2.53,6.85-2.53a12.25,12.25,0,0,1,5.61,1.25c1.64.83,2.45,2.4,2.45,4.71v8.79c0,.61,0,1.35,0,2.21a2.65,2.65,0,0,0,.3,1.34,1.78,1.78,0,0,0,.74.58v.74H49.4a5.26,5.26,0,0,1-.32-1.09c-.06-.34-.1-.73-.14-1.16a10.36,10.36,0,0,1-2.4,1.91,7.2,7.2,0,0,1-3.68.94,6.36,6.36,0,0,1-4.33-1.49,5.3,5.3,0,0,1-1.7-4.21,5.44,5.44,0,0,1,2.74-5.11A12.06,12.06,0,0,1,44-161.46Zm3.06,2.34a5.89,5.89,0,0,1-1,.49,9,9,0,0,1-1.35.34l-1.14.21a8,8,0,0,0-2.3.68,2.29,2.29,0,0,0-1.18,2.13,2.23,2.23,0,0,0,.72,1.86,2.75,2.75,0,0,0,1.76.57,5.25,5.25,0,0,0,3-.95,4,4,0,0,0,1.44-3.46Z" transform="translate(237.99 176.09)"/><path d="M63.27-150h-5v-25.91h5Z" transform="translate(237.99 176.09)"/><path d="M73.3-171.47H68.22v-4.62H73.3Zm-5.08,2.29H73.3V-150H68.22Z" transform="translate(237.99 176.09)"/><path d="M87.63-169.2a6,6,0,0,1,3,2.78v-2.76h4.89V-151a10.17,10.17,0,0,1-1.25,5.59q-2.14,3.24-8.23,3.24a11.23,11.23,0,0,1-6-1.44,5.33,5.33,0,0,1-2.57-4.31h5.45a2.24,2.24,0,0,0,.69,1.27,4.28,4.28,0,0,0,2.72.68c1.81,0,3-.6,3.62-1.81a9.11,9.11,0,0,0,.6-3.9v-1.23A6.07,6.07,0,0,1,89-151.08a6.2,6.2,0,0,1-3.89,1.15,7.36,7.36,0,0,1-5.9-2.6,10.47,10.47,0,0,1-2.2-7,11.88,11.88,0,0,1,2.12-7.18,7,7,0,0,1,6-2.91A6.62,6.62,0,0,1,87.63-169.2Zm1.71,13.74a6.21,6.21,0,0,0,1.21-4.23,6.51,6.51,0,0,0-1.15-4.15,3.73,3.73,0,0,0-3.07-1.42,3.6,3.6,0,0,0-3.62,2.48,8.61,8.61,0,0,0-.53,3.25,7.53,7.53,0,0,0,.56,3,3.65,3.65,0,0,0,3.64,2.43A3.87,3.87,0,0,0,89.34-155.46Z" transform="translate(237.99 176.09)"/><path d="M115.6-168.08q1.88,1.54,1.88,5.16V-150h-5.14v-11.66a5.34,5.34,0,0,0-.4-2.32,2.82,2.82,0,0,0-2.79-1.47,3.46,3.46,0,0,0-3.47,2.16,7.38,7.38,0,0,0-.49,2.92V-150h-5v-19.13H105v2.8a8.53,8.53,0,0,1,1.82-2.13,6.35,6.35,0,0,1,3.91-1.16A7.35,7.35,0,0,1,115.6-168.08Z" transform="translate(237.99 176.09)"/><path d="M126-156.14a3.41,3.41,0,0,0,.69,1.9c.62.67,1.78,1,3.46,1a5.2,5.2,0,0,0,2.36-.44,1.4,1.4,0,0,0,.87-1.32,1.41,1.41,0,0,0-.7-1.28,28.76,28.76,0,0,0-5.24-1.51,10.85,10.85,0,0,1-4.6-2,4.4,4.4,0,0,1-1.34-3.45,6,6,0,0,1,2.09-4.56,8.4,8.4,0,0,1,5.87-1.91,10.76,10.76,0,0,1,5.86,1.44c1.51.95,2.37,2.6,2.6,4.94h-5a2.94,2.94,0,0,0-.55-1.53,3.46,3.46,0,0,0-2.82-1,4,4,0,0,0-2.33.51,1.44,1.44,0,0,0-.7,1.19,1.32,1.32,0,0,0,.74,1.25,32.39,32.39,0,0,0,5.23,1.39,9.6,9.6,0,0,1,4.49,2.12,4.88,4.88,0,0,1,1.48,3.61,5.81,5.81,0,0,1-2.13,4.65q-2.11,1.8-6.56,1.8c-3,0-5.24-.64-6.68-1.91a6.19,6.19,0,0,1-2.16-4.86Z" transform="translate(237.99 176.09)"/><path d="M-238-129.44V-133h2.67v-5.34h5V-133h3.11v3.57h-3.11v10.13a2.3,2.3,0,0,0,.3,1.47,3.33,3.33,0,0,0,1.83.29h.48l.5,0v3.74l-2.37.09c-2.37.08-4-.33-4.85-1.23a3.67,3.67,0,0,1-.85-2.65v-11.8Z" transform="translate(237.99 176.09)"/><path d="M-208-116.37c-1.62,2-4.07,3-7.37,3s-5.75-1-7.36-3a11,11,0,0,1-2.43-7.21,11.16,11.16,0,0,1,2.43-7.18c1.61-2,4.07-3,7.36-3s5.75,1,7.37,3a11.21,11.21,0,0,1,2.42,7.18A11.1,11.1,0,0,1-208-116.37Zm-4-2.76a7.27,7.27,0,0,0,1.18-4.45,7.21,7.21,0,0,0-1.18-4.43,4,4,0,0,0-3.38-1.55,4,4,0,0,0-3.38,1.55,7.21,7.21,0,0,0-1.19,4.43,7.27,7.27,0,0,0,1.19,4.45,4,4,0,0,0,3.38,1.56A4,4,0,0,0-212.06-119.13Z" transform="translate(237.99 176.09)"/><path d="M-194-129.44V-133h2.67v-5.34h5V-133h3.11v3.57h-3.11v10.13a2.3,2.3,0,0,0,.3,1.47,3.33,3.33,0,0,0,1.83.29h.48l.5,0v3.74l-2.37.09c-2.37.08-4-.33-4.85-1.23a3.67,3.67,0,0,1-.85-2.65v-11.8Z" transform="translate(237.99 176.09)"/><path d="M-166.28-133.08a5.69,5.69,0,0,1,2.37,1.89,4.85,4.85,0,0,1,1,2.21,26.48,26.48,0,0,1,.18,3.7V-114h-5.12v-11.67a5.19,5.19,0,0,0-.52-2.5,2.62,2.62,0,0,0-2.58-1.34,3.55,3.55,0,0,0-3,1.33,6.07,6.07,0,0,0-1,3.8V-114h-5v-25.82h5v9.14a6.15,6.15,0,0,1,2.52-2.33,7.06,7.06,0,0,1,3-.66A8.09,8.09,0,0,1-166.28-133.08Z" transform="translate(237.99 176.09)"/><path d="M-152.91-135.47H-158v-4.62h5.08Zm-5.08,2.29h5.08V-114H-158Z" transform="translate(237.99 176.09)"/><path d="M-144.17-120.14a3.27,3.27,0,0,0,.69,1.9c.62.67,1.77,1,3.46,1a5.23,5.23,0,0,0,2.36-.44,1.4,1.4,0,0,0,.87-1.32,1.43,1.43,0,0,0-.7-1.28,28.7,28.7,0,0,0-5.25-1.51,10.92,10.92,0,0,1-4.6-2,4.4,4.4,0,0,1-1.33-3.45,6,6,0,0,1,2.08-4.56,8.42,8.42,0,0,1,5.88-1.91,10.78,10.78,0,0,1,5.86,1.44q2.26,1.42,2.59,4.94h-5a3,3,0,0,0-.54-1.53,3.46,3.46,0,0,0-2.82-1,4.1,4.1,0,0,0-2.34.51,1.46,1.46,0,0,0-.69,1.19,1.31,1.31,0,0,0,.74,1.25,32,32,0,0,0,5.23,1.39,9.65,9.65,0,0,1,4.49,2.12,4.87,4.87,0,0,1,1.47,3.61,5.83,5.83,0,0,1-2.12,4.65c-1.42,1.2-3.6,1.8-6.56,1.8s-5.25-.64-6.69-1.91a6.22,6.22,0,0,1-2.15-4.86Z" transform="translate(237.99 176.09)"/><path d="M-115.16-137.22a10.66,10.66,0,0,1,8-3.2q6.47,0,9.46,4.29A9.3,9.3,0,0,1-96-131.3h-5.41a7.29,7.29,0,0,0-1.33-2.81A5.3,5.3,0,0,0-107-135.8a5.29,5.29,0,0,0-4.57,2.38,11.67,11.67,0,0,0-1.67,6.74q0,4.37,1.76,6.53A5.52,5.52,0,0,0-107-118a5.07,5.07,0,0,0,4.25-1.86,8.08,8.08,0,0,0,1.34-3H-96A11.59,11.59,0,0,1-99.57-116a10.34,10.34,0,0,1-7.33,2.66,11,11,0,0,1-8.69-3.59q-3.16-3.6-3.17-9.88Q-118.76-133.55-115.16-137.22Z" transform="translate(237.99 176.09)"/><path d="M-76.06-116.37q-2.43,3-7.36,3c-3.3,0-5.75-1-7.37-3a11,11,0,0,1-2.42-7.21,11.15,11.15,0,0,1,2.42-7.18c1.62-2,4.07-3,7.37-3s5.74,1,7.36,3a11.16,11.16,0,0,1,2.43,7.18A11,11,0,0,1-76.06-116.37Zm-4-2.76a7.27,7.27,0,0,0,1.18-4.45A7.21,7.21,0,0,0-80.07-128a4,4,0,0,0-3.37-1.55A4,4,0,0,0-86.82-128,7.14,7.14,0,0,0-88-123.58a7.21,7.21,0,0,0,1.19,4.45,4,4,0,0,0,3.38,1.56A4,4,0,0,0-80.07-119.13Z" transform="translate(237.99 176.09)"/><path d="M-59.4-133.63l.43,0v5.13c-.32,0-.6-.06-.85-.07l-.59,0q-3,0-4.06,2a7.63,7.63,0,0,0-.58,3.41V-114h-5v-19.16h4.78v3.34a10.84,10.84,0,0,1,2-2.62,5.49,5.49,0,0,1,3.66-1.18Z" transform="translate(237.99 176.09)"/><path d="M-40.59-132.08q1.89,1.54,1.89,5.16V-114h-5.14v-11.66a5.34,5.34,0,0,0-.4-2.32A2.82,2.82,0,0,0-47-129.47a3.45,3.45,0,0,0-3.47,2.16,7.38,7.38,0,0,0-.49,2.92V-114h-5v-19.13h4.85v2.8a8.53,8.53,0,0,1,1.82-2.13,6.34,6.34,0,0,1,3.9-1.16A7.31,7.31,0,0,1-40.59-132.08Z" transform="translate(237.99 176.09)"/><path d="M-21.56-132.79A7.77,7.77,0,0,1-18.25-130a9.6,9.6,0,0,1,1.53,4,24.55,24.55,0,0,1,.16,3.8h-14a4.58,4.58,0,0,0,2,4,5.11,5.11,0,0,0,2.76.72,4.21,4.21,0,0,0,2.78-.88,4.32,4.32,0,0,0,1-1.32h5.11a6.17,6.17,0,0,1-1.86,3.46,9.28,9.28,0,0,1-7.21,2.8,10.41,10.41,0,0,1-6.74-2.36q-2.92-2.35-2.93-7.67,0-5,2.64-7.63a9.2,9.2,0,0,1,6.85-2.66A10.91,10.91,0,0,1-21.56-132.79Zm-7.5,4.32a5.25,5.25,0,0,0-1.33,3h8.63a4.18,4.18,0,0,0-1.33-3,4.38,4.38,0,0,0-3-1A4,4,0,0,0-29.06-128.47Z" transform="translate(237.99 176.09)"/><path d="M-3.38-133.63l.43,0v5.13c-.32,0-.6-.06-.84-.07l-.6,0q-3,0-4.06,2A7.63,7.63,0,0,0-9-123.18V-114h-5.05v-19.16H-9.3v3.34a10.58,10.58,0,0,1,2-2.62,5.45,5.45,0,0,1,3.65-1.18Z" transform="translate(237.99 176.09)"/><path d="M11.16-133.69a26.84,26.84,0,0,1,2.73-4.94l1.25-1.72,2.88,0a47.93,47.93,0,0,0-3.32,7,30.21,30.21,0,0,0-1.46,9.67,33.69,33.69,0,0,0,.56,6.34,29.61,29.61,0,0,0,3.08,8.53l1.07,2H15a34.53,34.53,0,0,1-4.34-7.68,23.7,23.7,0,0,1-1.76-8.85A26,26,0,0,1,11.16-133.69Z" transform="translate(237.99 176.09)"/><path d="M36.38-136.26c1.31,2.29,2,5.53,2,9.74s-.65,7.45-2,9.72-3.58,3.41-6.83,3.41-5.52-1.14-6.83-3.41-2-5.51-2-9.72.66-7.45,2-9.74,3.59-3.43,6.83-3.43S35.07-138.54,36.38-136.26ZM26.6-119.8a2.89,2.89,0,0,0,2.95,2.33,2.86,2.86,0,0,0,2.93-2.33,25,25,0,0,0,.69-6.72,24.76,24.76,0,0,0-.69-6.82,2.83,2.83,0,0,0-2.93-2.21,2.87,2.87,0,0,0-2.95,2.21,23.78,23.78,0,0,0-.72,6.82A24,24,0,0,0,26.6-119.8Z" transform="translate(237.99 176.09)"/><path d="M41.73-109.86a4,4,0,0,0,2.23-1.4,5.25,5.25,0,0,0,.81-2.76h-3v-5.26h5.42v4.55a10.65,10.65,0,0,1-.32,2.5A5,5,0,0,1,45.65-110a6.1,6.1,0,0,1-2.19,1.54,5.47,5.47,0,0,1-1.73.52Z" transform="translate(237.99 176.09)"/><path d="M66.4-136.26c1.31,2.29,2,5.53,2,9.74s-.65,7.45-2,9.72-3.58,3.41-6.83,3.41-5.52-1.14-6.82-3.41-2-5.51-2-9.72.65-7.45,2-9.74,3.58-3.43,6.82-3.43S65.1-138.54,66.4-136.26ZM56.62-119.8a2.9,2.9,0,0,0,3,2.33,2.86,2.86,0,0,0,2.93-2.33,24.91,24.91,0,0,0,.7-6.72,24.68,24.68,0,0,0-.7-6.82,2.83,2.83,0,0,0-2.93-2.21,2.87,2.87,0,0,0-3,2.21,23.78,23.78,0,0,0-.72,6.82A24,24,0,0,0,56.62-119.8Z" transform="translate(237.99 176.09)"/><path d="M78-133.39A23.86,23.86,0,0,1,80-123.83a26.23,26.23,0,0,1-2.44,10.76,22.47,22.47,0,0,1-2.58,4.6l-1.25,1.71h-3.7a44.7,44.7,0,0,0,3.22-6.86,30.12,30.12,0,0,0,1.56-9.89,33.34,33.34,0,0,0-.56-6.37,29.27,29.27,0,0,0-3.06-8.5l-1.07-2h3.77A37.06,37.06,0,0,1,78-133.39Z" transform="translate(237.99 176.09)"/></g><g id="Your_Design_Layer_1" data-name="Your Design Layer 1"><path class="cls-1" d="M607.27,532.48a4.26,4.26,0,0,0-4.26-4.27,6.56,6.56,0,0,0-4.26,1.91v4.71a6.56,6.56,0,0,0,4.26,1.91A4.26,4.26,0,0,0,607.27,532.48Z" transform="translate(237.99 176.09)"/><g id="SPLINE"><path class="cls-1" d="M828.56,521.11H601.16a17.46,17.46,0,0,0-7.81,2.16l-4.07,7a17.45,17.45,0,0,0,2,7.85,11.39,11.39,0,0,0,9.85,5.69H834.84a17.52,17.52,0,0,0,5.09-11.37A11.37,11.37,0,0,0,828.56,521.11Z" transform="translate(237.99 176.09)"/></g><g id="SPLINE-2" data-name="SPLINE"><path class="cls-1" d="M832.83,532.48a4.27,4.27,0,0,0-4.27-4.27,6.56,6.56,0,0,0-4.26,1.91v4.71a6.56,6.56,0,0,0,4.26,1.91A4.27,4.27,0,0,0,832.83,532.48Z" transform="translate(237.99 176.09)"/></g><polygon class="cls-1" points="957.11 313.85 957.1 313.16 957.09 311.19 957.08 308.07 957.06 304.83 957.06 281.01 956.94 281.01 956.93 279.85 956.86 265.15 956.78 250.1 956.71 235.76 956.67 229.19 956.64 223.19 956.62 217.9 956.6 213.45 956.58 209.97 956.57 207.61 956.56 206.48 956.56 206.19 956.51 205.56 955.77 203.14 954.23 201 951.99 199.32 949.29 198.27 946.33 197.91 946.03 197.91 945.15 197.91 943.73 197.92 941.79 197.92 939.36 197.93 936.46 197.94 929.39 197.97 920.82 198 910.95 198.03 900.03 198.07 888.28 198.11 863.18 198.2 837.49 198.29 824.98 198.34 813 198.38 801.78 198.42 791.53 198.46 782.5 198.49 774.91 198.52 771.72 198.53 768.97 198.54 766.7 198.55 764.93 198.55 763.69 198.56 763 198.56 762.61 198.56 761.83 198.61 758.91 199.24 756.4 200.53 754.44 202.35 753.17 204.59 752.72 207.12 752.73 207.81 752.74 209.78 752.75 212.9 752.77 217.04 752.8 222.06 752.83 227.84 752.86 234.24 752.89 241.12 752.97 255.82 753.04 270.87 753.12 285.21 753.15 291.78 753.18 297.78 753.21 303.07 753.22 304.85 753.22 324.19 957.06 324.19 957.06 314.11 957.11 313.85"/><path class="cls-1" d="M619.16,42a3.76,3.76,0,0,1,3.75-3.78,5.82,5.82,0,0,1,3.78,1.67c0,2.08,0,2.08,0,4.16a5.78,5.78,0,0,1-3.75,1.7A3.77,3.77,0,0,1,619.16,42Z" transform="translate(237.99 176.09)"/><path class="cls-1" d="M619.16,117a3.76,3.76,0,0,1,3.75-3.78,5.82,5.82,0,0,1,3.78,1.67c0,2.08,0,2.08,0,4.16a5.72,5.72,0,0,1-3.75,1.7A3.77,3.77,0,0,1,619.16,117Z" transform="translate(237.99 176.09)"/><path class="cls-1" d="M685.32,107.81l-124.52.53-.25-59,124.52-.53Z" transform="translate(237.99 176.09)"/><circle class="cls-1" cx="500.72" cy="453.79" r="252"/><circle class="cls-1" cx="501.39" cy="454.19" r="14"/><path class="cls-1" d="M300.25,281.87a3.76,3.76,0,0,1-3.78-3.75,5.78,5.78,0,0,1,1.67-3.77l4.16,0a5.82,5.82,0,0,1,1.7,3.76A3.76,3.76,0,0,1,300.25,281.87Z" transform="translate(237.99 176.09)"/><path class="cls-1" d="M225.25,281.87a3.76,3.76,0,0,1-3.78-3.75,5.78,5.78,0,0,1,1.67-3.77l4.16,0a5.82,5.82,0,0,1,1.7,3.76A3.76,3.76,0,0,1,225.25,281.87Z" transform="translate(237.99 176.09)"/><line class="cls-1" x1="58.29" y1="454.86" x2="943.15" y2="454.86"/><text class="cls-2" transform="translate(521.75 625.81)">base</text><text class="cls-2" transform="translate(494.36 406.83)">se<tspan class="cls-3" x="26.91" y="0">r</tspan><tspan class="cls-4" x="37.47" y="0">v</tspan><tspan x="51.6" y="0">o</tspan></text><text class="cls-2" transform="translate(1778.44 700.69)">se<tspan class="cls-3" x="26.91" y="0">r</tspan><tspan class="cls-4" x="37.47" y="0">v</tspan><tspan x="51.6" y="0">o mou</tspan><tspan class="cls-5" x="132.45" y="0">n</tspan><tspan x="148.98" y="0">t</tspan></text><text class="cls-2" transform="translate(295.66 842.4)">a<tspan class="cls-6" x="14.46" y="0">r</tspan><tspan x="24.39" y="0">ms + </tspan><tspan x="0" y="36">joi</tspan><tspan class="cls-5" x="30.78" y="36">n</tspan><tspan x="47.31" y="36">ts</tspan></text><rect class="cls-1" x="-58.28" y="806.23" width="559.49" height="34.71" rx="10.79" ry="10.79" transform="translate(-364.13 1221.14) rotate(-90)"/><circle class="cls-1" cx="459.45" cy="740.53" r="4.09"/><circle class="cls-1" cx="459.45" cy="1261.98" r="3.77"/><rect class="cls-1" x="23.84" y="779.69" width="506.39" height="34.71" rx="10.79" ry="10.79" transform="translate(-282.01 1250.17) rotate(-90)"/><circle class="cls-1" cx="515.03" cy="1205.63" r="3.77"/><circle class="cls-1" cx="515.03" cy="741.3" r="7.2"/><circle class="cls-1" cx="558.18" cy="729.39" r="4.09"/><circle class="cls-1" cx="558.18" cy="729.39" r="12.54"/><path class="cls-1" d="M1226.47,182.19a3.76,3.76,0,0,1,3.75-3.78,5.82,5.82,0,0,1,3.78,1.67c0,2.08,0,2.08,0,4.16a5.78,5.78,0,0,1-3.75,1.7A3.77,3.77,0,0,1,1226.47,182.19Z" transform="translate(237.99 176.09)"/><polygon class="cls-1" points="1564.41 486.17 1564.41 485.3 1564.4 482.78 1564.39 478.8 1564.37 474.67 1564.37 444.24 1564.25 444.24 1564.24 442.76 1564.17 424 1564.09 404.78 1564.02 386.47 1563.98 378.07 1563.95 370.42 1563.93 363.66 1563.91 357.98 1563.89 353.55 1563.88 350.52 1563.87 349.08 1563.87 348.71 1563.82 347.9 1563.08 344.82 1561.54 342.09 1559.3 339.94 1556.6 338.6 1553.63 338.14 1553.34 338.14 1552.46 338.14 1551.04 338.15 1549.1 338.16 1546.67 338.17 1543.77 338.18 1536.7 338.22 1528.13 338.25 1518.26 338.3 1507.34 338.35 1495.59 338.4 1470.49 338.52 1444.8 338.63 1432.29 338.69 1420.31 338.74 1409.09 338.8 1398.84 338.84 1389.81 338.88 1382.22 338.92 1379.03 338.93 1376.28 338.94 1374.01 338.95 1372.24 338.96 1371 338.97 1370.31 338.97 1369.92 338.98 1369.14 339.03 1366.22 339.85 1363.71 341.49 1361.75 343.81 1360.48 346.67 1360.03 349.9 1360.04 350.78 1360.05 353.3 1360.06 357.28 1360.08 362.57 1360.11 368.98 1360.14 376.36 1360.17 384.52 1360.2 393.31 1360.28 412.08 1360.35 431.3 1360.43 449.61 1360.46 458 1360.49 465.66 1360.52 472.42 1360.53 474.69 1360.53 499.38 1564.37 499.38 1564.37 486.51 1564.41 486.17"/><path class="cls-1" d="M1226.47,257.2a3.77,3.77,0,0,1,3.75-3.79,5.82,5.82,0,0,1,3.78,1.67c0,2.08,0,2.08,0,4.16a5.76,5.76,0,0,1-3.75,1.71A3.79,3.79,0,0,1,1226.47,257.2Z" transform="translate(237.99 176.09)"/><path class="cls-1" d="M1292.63,248l-124.52.53-.25-59,124.52-.53Z" transform="translate(237.99 176.09)"/><text class="cls-2" transform="translate(1648.12 414.21)">se<tspan class="cls-3" x="26.91" y="0">r</tspan><tspan class="cls-4" x="37.47" y="0">v</tspan><tspan x="51.6" y="0">o mou</tspan><tspan class="cls-5" x="132.45" y="0">n</tspan><tspan x="148.98" y="0">t</tspan></text><text class="cls-2" transform="translate(2205.22 1117.47)">cam base w/ <tspan x="0" y="36">slot </tspan><tspan class="cls-7" x="51.72" y="36">f</tspan><tspan x="60.09" y="36">or se</tspan><tspan class="cls-3" x="119.64" y="36">r</tspan><tspan class="cls-4" x="130.2" y="36">v</tspan><tspan x="144.33" y="36">o </tspan><tspan x="0" y="72">mou</tspan><tspan class="cls-5" x="58.02" y="72">n</tspan><tspan x="74.55" y="72">t</tspan></text><text class="cls-2" transform="translate(1403.12 305.73)">se<tspan class="cls-3" x="26.91" y="0">r</tspan><tspan class="cls-4" x="37.47" y="0">v</tspan><tspan x="51.6" y="0">o f</tspan><tspan class="cls-4" x="83.19" y="0">r</tspan><tspan x="92.7" y="0">o</tspan><tspan class="cls-5" x="109.17" y="0">n</tspan><tspan x="125.7" y="0">t</tspan></text><path class="cls-1" d="M1706.51,100.37h8.06v27.89h-8.06Z" transform="translate(237.99 176.09)"/><polyline class="cls-1" points="1812.4 247.23 1812.86 247.23 1814.2 247.23 1816.36 247.23 1819.27 247.23 1822.86 247.23 1827.06 247.23 1831.82 247.23 1837.05 247.23 1842.7 247.23 1848.69 247.23 1861.47 247.23 1888.25 247.23 1901.2 247.23 1913.14 247.23 1918.57 247.23 1923.55 247.23 1928 247.23 1931.87 247.23 1935.09 247.23 1937.59 247.23 1939.31 247.23 1940.17 247.23 1940.31 247.23 1940.79 247.24 1941.73 247.29 1943.58 247.55 1947.04 248.61 1950.12 250.34 1952.73 252.64 1954.77 255.42 1956.14 258.59 1956.75 262.06 1956.77 262.86 1956.77 263.16 1956.77 263.93 1956.77 265.12 1956.77 266.7 1956.77 268.65 1956.77 273.47 1956.77 279.29 1956.77 285.84 1956.77 299.98 1956.77 307 1956.77 313.62 1956.77 319.54 1956.77 324.48 1956.77 326.5 1956.77 328.17 1956.77 329.45 1956.77 330.31 1956.77 330.72 1956.77 330.9 1956.76 331.35 1956.58 333.12 1955.62 336.47 1953.94 339.47 1951.64 342.05 1948.8 344.11 1945.54 345.56 1941.94 346.3 1940.24 346.38 1939.57 346.38 1938.04 346.38 1935.71 346.38 1932.64 346.38 1928.91 346.38 1924.58 346.38 1919.72 346.38 1914.38 346.38 1908.65 346.38 1902.59 346.38 1889.72 346.38 1876.33 346.38 1862.93 346.38 1850.07 346.38 1844 346.38 1838.27 346.38 1832.94 346.38 1828.07 346.38 1823.74 346.38 1820.01 346.38 1816.95 346.38 1814.62 346.38 1813.08 346.38 1812.42 346.38 1810.71 346.3 1807.12 345.56 1803.85 344.11 1801.02 342.05 1798.72 339.47 1797.04 336.47 1796.08 333.12 1795.9 331.35 1795.89 330.9 1795.89 330.72 1795.89 330.31 1795.89 329.45 1795.89 328.17 1795.89 326.5 1795.89 324.48 1795.89 319.54 1795.89 313.62 1795.89 307 1795.89 299.98 1795.89 285.84 1795.89 279.29 1795.89 273.47 1795.89 268.65 1795.89 266.7 1795.89 265.12 1795.89 263.93 1795.89 263.16 1795.89 262.46 1796.41 258.96 1797.7 255.76 1799.67 252.93 1802.22 250.57 1805.26 248.77 1808.68 247.63 1812.4 247.23"/><path class="cls-1" d="M1640.58,80.38a3.76,3.76,0,0,1,3.75-3.78,5.78,5.78,0,0,1,3.77,1.67l0,4.16a5.82,5.82,0,0,1-3.76,1.7A3.76,3.76,0,0,1,1640.58,80.38Z" transform="translate(237.99 176.09)"/><path class="cls-1" d="M1640.58,155.38a3.76,3.76,0,0,1,3.75-3.78,5.78,5.78,0,0,1,3.77,1.67l0,4.16a5.76,5.76,0,0,1-3.76,1.7A3.76,3.76,0,0,1,1640.58,155.38Z" transform="translate(237.99 176.09)"/><path class="cls-1" d="M1706.74,146.23l-124.53.53-.25-59,124.53-.53Z" transform="translate(237.99 176.09)"/><text class="cls-2" transform="translate(774.05 362.4)">se<tspan class="cls-3" x="26.91" y="0">r</tspan><tspan class="cls-4" x="37.47" y="0">v</tspan><tspan x="51.6" y="0">o f</tspan><tspan class="cls-4" x="83.19" y="0">r</tspan><tspan x="92.7" y="0">o</tspan><tspan class="cls-5" x="109.17" y="0">n</tspan><tspan x="125.7" y="0">t</tspan></text><circle class="cls-1" cx="1956.77" cy="475.36" r="72.98"/><circle class="cls-1" cx="1956.77" cy="475.97" r="14"/><circle class="cls-1" cx="1956.77" cy="447.52" r="3.77"/><circle class="cls-1" cx="1956.77" cy="503.21" r="3.77"/><circle class="cls-1" cx="1956.77" cy="535.47" r="3.77"/><circle class="cls-1" cx="2019.3" cy="475.36" r="2.34"/><text class="cls-2" transform="translate(2047 487.05)">se<tspan class="cls-3" x="26.91" y="0">r</tspan><tspan class="cls-4" x="37.47" y="0">v</tspan><tspan x="51.6" y="0">o hub</tspan></text><circle class="cls-1" cx="588.45" cy="729.39" r="4.09"/><circle class="cls-1" cx="588.45" cy="729.39" r="12.54"/><circle class="cls-1" cx="617.52" cy="729.39" r="4.09"/><circle class="cls-1" cx="617.52" cy="729.39" r="12.54"/><circle class="cls-1" cx="645.93" cy="729.39" r="4.09"/><circle class="cls-1" cx="645.93" cy="729.39" r="12.54"/><circle class="cls-1" cx="558.18" cy="758.81" r="4.09"/><circle class="cls-1" cx="558.18" cy="758.81" r="12.54"/><circle class="cls-1" cx="592.54" cy="758.81" r="4.09"/><circle class="cls-1" cx="592.54" cy="758.81" r="12.54"/><text class="cls-2" transform="translate(621.61 784.2)"><tspan class="cls-5">w</tspan><tspan x="21.96" y="0">ashers</tspan></text><rect class="cls-1" x="779.48" y="802.23" width="362.64" height="259.47"/><path class="cls-1" d="M653.53,794.81a3.77,3.77,0,0,1,3.75-3.79,5.88,5.88,0,0,1,3.78,1.67c0,2.08,0,2.08,0,4.16a5.8,5.8,0,0,1-3.76,1.71A3.76,3.76,0,0,1,653.53,794.81Z" transform="translate(237.99 176.09)"/><path class="cls-1" d="M784.56,717a3.76,3.76,0,0,1,3.74-3.78,5.82,5.82,0,0,1,3.78,1.67l0,4.16a5.82,5.82,0,0,1-3.76,1.7A3.76,3.76,0,0,1,784.56,717Z" transform="translate(237.99 176.09)"/><path class="cls-1" d="M784.56,794.81A3.76,3.76,0,0,1,788.3,791a5.88,5.88,0,0,1,3.78,1.67l0,4.16a5.8,5.8,0,0,1-3.76,1.71A3.76,3.76,0,0,1,784.56,794.81Z" transform="translate(237.99 176.09)"/><path class="cls-1" d="M653.53,717a3.76,3.76,0,0,1,3.75-3.78,5.82,5.82,0,0,1,3.78,1.67c0,2.08,0,2.08,0,4.16a5.82,5.82,0,0,1-3.76,1.7A3.76,3.76,0,0,1,653.53,717Z" transform="translate(237.99 176.09)"/><text class="cls-2" transform="translate(675.78 1104.73)">standoff <tspan class="cls-7" x="110.16" y="0">f</tspan><tspan x="118.53" y="0">or se</tspan><tspan class="cls-3" x="178.08" y="0">r</tspan><tspan class="cls-4" x="188.64" y="0">v</tspan><tspan x="202.77" y="0">o </tspan><tspan x="0" y="36">base</tspan></text><circle class="cls-1" cx="674.23" cy="729.39" r="4.09"/><circle class="cls-1" cx="674.23" cy="729.39" r="12.54"/><circle class="cls-1" cx="592.54" cy="788.23" r="4.09"/><circle class="cls-1" cx="592.54" cy="788.23" r="12.54"/><circle class="cls-1" cx="558.18" cy="785.65" r="4.09"/><circle class="cls-1" cx="558.18" cy="785.65" r="12.54"/><path class="cls-1" d="M239.21,281.87a3.76,3.76,0,0,1-3.78-3.75,5.78,5.78,0,0,1,1.67-3.77l4.16,0a5.76,5.76,0,0,1,1.7,3.76A3.76,3.76,0,0,1,239.21,281.87Z" transform="translate(237.99 176.09)"/><path class="cls-1" d="M287,281.87a3.76,3.76,0,0,1-3.78-3.75,5.78,5.78,0,0,1,1.67-3.77l4.16,0a5.82,5.82,0,0,1,1.7,3.76A3.76,3.76,0,0,1,287,281.87Z" transform="translate(237.99 176.09)"/><path class="cls-1" d="M263.42,259.33a3.76,3.76,0,0,1-3.78-3.75,5.78,5.78,0,0,1,1.67-3.77l4.16,0a5.82,5.82,0,0,1,1.7,3.76A3.76,3.76,0,0,1,263.42,259.33Z" transform="translate(237.99 176.09)"/><path class="cls-1" d="M263.42,303a3.76,3.76,0,0,1-3.78-3.75,5.78,5.78,0,0,1,1.67-3.77l4.16,0a5.82,5.82,0,0,1,1.7,3.76A3.76,3.76,0,0,1,263.42,303Z" transform="translate(237.99 176.09)"/><path class="cls-1" d="M269.86,513.1a3.77,3.77,0,0,1-3.79-3.75,5.78,5.78,0,0,1,1.67-3.77l4.16,0a5.8,5.8,0,0,1,1.71,3.76A3.77,3.77,0,0,1,269.86,513.1Z" transform="translate(237.99 176.09)"/><rect class="cls-8" x="1171.99" y="791.27" width="163.8" height="203.56"/><rect class="cls-8" x="1237.99" y="799.12" width="37.02" height="10.79"/><rect class="cls-8" x="1185.08" y="971.34" width="17.55" height="23.49"/><rect class="cls-8" x="1305.15" y="971.34" width="17.55" height="23.49"/><rect class="cls-8" x="1274.11" y="971.34" width="17.55" height="23.49"/><rect class="cls-8" x="1244.63" y="971.34" width="17.55" height="23.49"/><rect class="cls-8" x="1212.86" y="971.34" width="17.55" height="23.49"/><rect class="cls-8" x="1406" y="799.12" width="37.02" height="10.79"/><rect class="cls-8" x="1344.17" y="791.27" width="163.8" height="203.56"/><rect class="cls-8" x="1366.59" y="903.95" width="48.59" height="90.88"/><rect class="cls-8" x="1433.84" y="903.95" width="48.59" height="90.88"/><rect class="cls-1" x="1237.27" y="799.86" width="348.53" height="34.71" rx="10.79" ry="10.79" transform="translate(832.31 2404.84) rotate(-90)"/><circle class="cls-1" cx="1649.52" cy="839.63" r="4.09"/><circle class="cls-1" cx="1649.52" cy="1144.72" r="3.77"/><rect class="cls-1" x="1324.08" y="836.62" width="290.12" height="34.71" rx="10.79" ry="10.79" transform="translate(853.15 2499.21) rotate(-90)"/><circle class="cls-1" cx="1707.5" cy="1155.92" r="3.77"/><circle class="cls-1" cx="1707.13" cy="906.37" r="7.2"/><circle class="cls-1" cx="1747.66" cy="833.4" r="5.16"/><ellipse class="cls-1" cx="1509.67" cy="657.31" rx="14.03" ry="13.87" transform="translate(153.09 422.88) rotate(-9.09)"/><circle class="cls-1" cx="1742.84" cy="803.23" r="5.16"/><ellipse class="cls-1" cx="1504.85" cy="627.14" rx="14.03" ry="13.87" transform="translate(157.8 421.74) rotate(-9.09)"/><circle class="cls-1" cx="1752.59" cy="864.18" r="5.16"/><ellipse class="cls-1" cx="1514.6" cy="688.09" rx="14.03" ry="13.87" transform="translate(148.29 424.05) rotate(-9.09)"/><circle class="cls-1" cx="1757.58" cy="895.37" r="5.16"/><ellipse class="cls-1" cx="1519.59" cy="719.28" rx="14.03" ry="13.87" transform="translate(143.43 425.23) rotate(-9.09)"/><circle class="cls-1" cx="1784.57" cy="861" r="5.16"/><ellipse class="cls-1" cx="1546.58" cy="684.91" rx="14.03" ry="13.87" transform="translate(149.2 429.06) rotate(-9.09)"/><circle class="cls-1" cx="1789.56" cy="892.23" r="5.16"/><ellipse class="cls-1" cx="1551.58" cy="716.14" rx="14.03" ry="13.87" transform="translate(144.32 430.24) rotate(-9.09)"/><circle class="cls-1" cx="1762.52" cy="926.24" r="5.16"/><ellipse class="cls-1" cx="1524.53" cy="750.15" rx="14.03" ry="13.87" transform="translate(138.61 426.4) rotate(-9.09)"/><circle class="cls-1" cx="1710.17" cy="798.54" r="5.16"/><ellipse class="cls-1" cx="1472.18" cy="622.45" rx="14.03" ry="13.87" transform="translate(158.13 416.52) rotate(-9.09)"/><circle class="cls-1" cx="1715.16" cy="829.77" r="5.16"/><ellipse class="cls-1" cx="1477.18" cy="653.68" rx="14.03" ry="13.87" transform="translate(153.26 417.7) rotate(-9.09)"/><circle class="cls-1" cx="1793.94" cy="926.44" r="5.16"/><ellipse class="cls-1" cx="1555.96" cy="750.35" rx="14.03" ry="13.87" transform="translate(138.97 431.36) rotate(-9.09)"/><rect class="cls-1" x="1174.89" y="768.28" width="338.84" height="34.71" rx="10.79" ry="10.79" transform="translate(796.67 2306.03) rotate(-90)"/><circle class="cls-1" cx="1582.3" cy="1112.34" r="3.77"/><circle class="cls-1" cx="1582.3" cy="813.67" r="7.2"/><circle class="cls-1" cx="2189.44" cy="179.65" r="4.14"/><circle class="cls-1" cx="2189.69" cy="303.29" r="144.49"/><circle class="cls-1" cx="2189.44" cy="303.27" r="14"/><rect class="cls-1" x="1983.45" y="110.61" width="6.27" height="33.15" rx="3.13" ry="3.13" transform="translate(2097.39 2289.86) rotate(-90)"/><rect class="cls-1" x="1912.88" y="110.61" width="6.27" height="33.15" rx="3.13" ry="3.13" transform="translate(2026.82 2219.29) rotate(-90)"/><rect class="cls-1" x="1948.32" y="146.5" width="6.27" height="33.15" rx="3.13" ry="3.13" transform="translate(4140.89 502.23) rotate(180)"/><circle class="cls-1" cx="2313.4" cy="303.27" r="4.28"/><path class="cls-1" d="M1945.36,798.52a3.76,3.76,0,0,1,3.78,3.75,5.78,5.78,0,0,1-1.67,3.77l-4.16,0a5.82,5.82,0,0,1-1.7-3.76A3.76,3.76,0,0,1,1945.36,798.52Z" transform="translate(237.99 176.09)"/><path class="cls-1" d="M1870.35,798.52a3.77,3.77,0,0,1,3.79,3.75,5.78,5.78,0,0,1-1.67,3.77l-4.16,0a5.8,5.8,0,0,1-1.71-3.76A3.77,3.77,0,0,1,1870.35,798.52Z" transform="translate(237.99 176.09)"/><path class="cls-1" d="M1879.51,864.68,1879,740.15l59-.25.53,124.53Z" transform="translate(237.99 176.09)"/><rect class="cls-1" x="1823.48" y="598.17" width="165.88" height="286.47" transform="translate(4050.83 1658.9) rotate(-180)"/><rect class="cls-1" x="2005.87" y="337.03" width="272.59" height="176.57" transform="translate(1954.84 2743.57) rotate(-90)"/><rect class="cls-1" x="2060.06" y="416.36" width="204.55" height="9.36" transform="translate(1979.29 2759.47) rotate(-90)"/><path class="cls-1" d="M2081.51,307a3.76,3.76,0,0,1-3.75,3.78,5.78,5.78,0,0,1-3.77-1.67l0-4.16a5.82,5.82,0,0,1,3.76-1.7A3.76,3.76,0,0,1,2081.51,307Z" transform="translate(237.99 176.09)"/><path class="cls-1" d="M2081.51,538.14a3.76,3.76,0,0,1-3.75,3.78,5.78,5.78,0,0,1-3.77-1.67l0-4.16a5.82,5.82,0,0,1,3.76-1.7A3.76,3.76,0,0,1,2081.51,538.14Z" transform="translate(237.99 176.09)"/><path class="cls-1" d="M2216.94,307a3.76,3.76,0,0,1-3.74,3.78,5.82,5.82,0,0,1-3.78-1.67l0-4.16a5.82,5.82,0,0,1,3.76-1.7A3.76,3.76,0,0,1,2216.94,307Z" transform="translate(237.99 176.09)"/><path class="cls-1" d="M2216.94,538.14a3.76,3.76,0,0,1-3.74,3.78,5.82,5.82,0,0,1-3.78-1.67l0-4.16a5.82,5.82,0,0,1,3.76-1.7A3.76,3.76,0,0,1,2216.94,538.14Z" transform="translate(237.99 176.09)"/><rect class="cls-1" x="2060.06" y="709.98" width="204.55" height="9.72" transform="translate(1685.49 3053.26) rotate(-90)"/><rect class="cls-1" x="2004.11" y="630.82" width="272.59" height="176.57" transform="translate(1659.29 3035.6) rotate(-90)"/><path class="cls-1" d="M2079.75,600.74a3.76,3.76,0,0,1-3.75,3.78,5.78,5.78,0,0,1-3.77-1.67l0-4.16A5.82,5.82,0,0,1,2076,597,3.76,3.76,0,0,1,2079.75,600.74Z" transform="translate(237.99 176.09)"/><path class="cls-1" d="M2079.75,831.93a3.76,3.76,0,0,1-3.75,3.78,5.78,5.78,0,0,1-3.77-1.67l0-4.16a5.82,5.82,0,0,1,3.76-1.7A3.76,3.76,0,0,1,2079.75,831.93Z" transform="translate(237.99 176.09)"/><path class="cls-1" d="M2215.19,600.74a3.76,3.76,0,0,1-3.75,3.78,5.82,5.82,0,0,1-3.78-1.67l0-4.16a5.82,5.82,0,0,1,3.76-1.7A3.77,3.77,0,0,1,2215.19,600.74Z" transform="translate(237.99 176.09)"/><path class="cls-1" d="M2215.19,831.93a3.76,3.76,0,0,1-3.75,3.78,5.82,5.82,0,0,1-3.78-1.67l0-4.16a5.82,5.82,0,0,1,3.76-1.7A3.77,3.77,0,0,1,2215.19,831.93Z" transform="translate(237.99 176.09)"/><path class="cls-1" d="M1913,445.26a3.77,3.77,0,0,1,3.75-3.79,5.78,5.78,0,0,1,3.77,1.67l0,4.16a5.8,5.8,0,0,1-3.76,1.71A3.77,3.77,0,0,1,1913,445.26Z" transform="translate(237.99 176.09)"/><path class="cls-1" d="M1913,520.26a3.76,3.76,0,0,1,3.75-3.78,5.78,5.78,0,0,1,3.77,1.67l0,4.16a5.82,5.82,0,0,1-3.76,1.7A3.76,3.76,0,0,1,1913,520.26Z" transform="translate(237.99 176.09)"/><path class="cls-1" d="M1979.14,511.1l-124.52.53-.26-59,124.53-.53Z" transform="translate(237.99 176.09)"/><rect class="cls-1" x="1802.6" y="370.64" width="165.88" height="227.11" transform="translate(2607.72 -1225.26) rotate(90)"/></g></svg>